Coordinates
version=1
nRows=24
nColumns=24
inDegrees=yes

Units are S.I. units (second, meters, Newtons, ...)
Angles are in degrees.

endheader
time	pelvis_tilt	pelvis_list	pelvis_rotation	pelvis_tx	pelvis_ty	pelvis_tz	hip_flexion_r	hip_adduction_r	hip_rotation_r	knee_angle_r	ankle_angle_r	subtalar_angle_r	mtp_angle_r	hip_flexion_l	hip_adduction_l	hip_rotation_l	knee_angle_l	ankle_angle_l	subtalar_angle_l	mtp_angle_l	lumbar_extension	lumbar_bending	lumbar_rotation
      6.76000000	     -8.51833853	     -2.05981216	      9.68777787	     -1.12212774	     -0.02753546	     -0.27300394	     33.10432699	     -3.21817603	     -8.19038423	    -11.68111222	     -1.48377494	      6.81922087	     13.21442528	     -6.89025105	     -1.35366018	     18.98522225	    -16.76387720	      5.56776910	      1.06875249	     14.35338404	      5.28512570	     -0.23190203	    -10.07943437
      6.76500000	     -8.62547900	     -2.24668977	      9.79243313	     -1.11517737	     -0.02821801	     -0.27226356	     33.09587344	     -3.05867813	     -8.56206068	    -12.11945121	     -2.17387618	      6.65475728	     13.75865007	     -6.88378720	     -1.66808972	     18.72705160	    -17.22887225	      5.08942536	      1.63428798	     15.07842386	      5.62731815	     -0.05584629	    -10.13482160
      6.77000000	     -8.73191399	     -2.43157433	      9.79938816	     -1.10826186	     -0.02885356	     -0.27133112	     33.11854926	     -2.84016007	     -8.82233392	    -12.56031350	     -2.97566320	      6.47336693	     14.39047168	     -6.86498421	     -1.98351953	     18.33768974	    -17.70923359	      4.55398178	      2.27615686	     15.95326678	      5.95549616	      0.10942424	    -10.10395496
      6.77500000	     -8.83862625	     -2.67770733	      9.83622148	     -1.10138149	     -0.02939243	     -0.27046338	     33.13705444	     -2.57462903	     -9.03393621	    -12.97532476	     -3.78941559	      6.25579448	     14.87716463	     -6.78800153	     -2.35917887	     17.96514224	    -18.26045064	      3.98644448	      2.94447157	     16.77907377	      6.29168268	      0.35210157	    -10.05626857
      6.78000000	     -8.94777961	     -2.95339207	      9.80633638	     -1.09453274	     -0.02984395	     -0.26949517	     33.18769594	     -2.23283994	     -9.12472331	    -13.40760166	     -4.64040922	      5.99975993	     15.29510787	     -6.68234855	     -2.76629808	     17.48329806	    -18.83605568	      3.35591384	      3.65909481	     17.69160630	      6.62768404	      0.63392050	     -9.98379513
      6.78500000	     -9.04590214	     -3.24016962	      9.69564220	     -1.08766448	     -0.03017014	     -0.26844663	     33.23312703	     -1.81313013	     -8.99099780	    -13.81230416	     -5.65389186	      5.57360208	     15.99769495	     -6.60833074	     -3.18292357	     16.98382619	    -19.32917413	      2.33677593	      4.08984004	     19.27859095	      6.95458539	      0.94679085	     -9.82780432
      6.79000000	     -9.15132819	     -3.62013853	      9.67802908	     -1.08091049	     -0.03040527	     -0.26751828	     33.32200820	     -1.36205778	     -8.99222061	    -14.32045680	     -6.32034706	      5.40720692	     16.00169976	     -6.38803858	     -3.70157240	     16.45055346	    -20.06892209	      1.75989266	      5.06629060	     19.86933329	      7.29042056	      1.34525499	     -9.82464879
      6.79500000	     -9.26486843	     -3.99530730	      9.56602880	     -1.07415927	     -0.03057480	     -0.26640122	     33.42526755	     -0.81430403	     -8.62789931	    -14.82545915	     -7.03072613	      4.91607645	     15.91946744	     -6.12359756	     -4.22451608	     15.70298236	    -20.84338947	      0.94792051	      6.02953586	     20.87525915	      7.62771005	      1.74148414	     -9.69679015
      6.80000000	     -9.35889950	     -4.38391151	      9.40662090	     -1.06737905	     -0.03058850	     -0.26525395	     33.51613110	     -0.19959158	     -8.13394767	    -15.35369712	     -7.73129605	      4.30069902	     15.64787206	     -5.90325314	     -4.76454256	     15.01007471	    -21.51688745	     -0.29377994	      6.66543644	     22.60344382	      7.94758656	      2.17000296	     -9.51580938
      6.80500000	     -9.43687508	     -4.80378430	      9.29896344	     -1.06067368	     -0.03057154	     -0.26422152	     33.60250336	      0.41430944	     -7.65148825	    -15.93975856	     -8.15120466	      3.91554406	     15.36568632	     -5.57459752	     -5.34993012	     14.21323434	    -22.43584097	     -1.17667230	      7.79963216	     23.47362683	      8.24428869	      2.63291443	     -9.45609385
      6.81000000	     -9.51108732	     -5.22906683	      9.11092809	     -1.05385962	     -0.03042503	     -0.26307015	     33.66928750	      1.12993604	     -6.94632717	    -16.51604594	     -8.55565546	      3.18262020	     14.51877212	     -5.29144483	     -5.94422119	     13.42220053	    -23.22478185	     -2.61108353	      8.47653610	     25.21325790	      8.54931991	      3.11338145	     -9.28700760
      6.81500000	     -9.56809307	     -5.64684522	      8.94769681	     -1.04708550	     -0.03024406	     -0.26196379	     33.71767378	      1.82769749	     -6.28862728	    -17.11840418	     -8.76487998	      2.57258932	     13.73220115	     -4.94189435	     -6.54989913	     12.55130301	    -24.17406024	     -3.89807997	      9.45772405	     26.44236161	      8.82724296	      3.58572752	     -9.17142708
      6.82000000	     -9.59698155	     -6.01519657	      8.80478618	     -1.04041198	     -0.02999422	     -0.26089216	     33.71764189	      2.48597715	     -5.56376774	    -17.70810840	     -8.91259179	      1.89884710	     12.99779663	     -4.56785238	     -7.11253166	     11.71753215	    -25.21252940	     -5.22379269	     10.50122494	     27.46723121	      9.04524194	      4.00818744	     -9.10184874
      6.82500000	     -9.61008514	     -6.39883107	      8.62699786	     -1.03352274	     -0.02966630	     -0.25981420	     33.66398279	      3.18971750	     -4.92263442	    -18.27031202	     -8.86116897	      1.23231701	     11.94851546	     -4.23711253	     -7.70386799	     10.86512106	    -26.17870896	     -6.87977772	     11.28108718	     28.80420560	      9.28653811	      4.45686757	     -8.97891761
      6.83000000	     -9.61270445	     -6.71109415	      8.49232068	     -1.02676848	     -0.02931790	     -0.25877340	     33.56731324	      3.81009578	     -4.23317117	    -18.79261853	     -8.80166092	      0.52887597	     11.22713958	     -3.84699192	     -8.22658011	     10.09662388	    -27.27854771	     -8.42479419	     12.25163304	     29.61180964	      9.48330009	      4.81514481	     -8.93829997
      6.83500000	     -9.60840961	     -7.03432976	      8.30924718	     -1.01994295	     -0.02893650	     -0.25778700	     33.43664893	      4.43690570	     -3.73747467	    -19.26053915	     -8.70190682	      0.03634180	     10.81529150	     -3.45516105	     -8.75988196	      9.30074792	    -28.41771410	     -9.99424053	     13.15905212	     30.08208781	      9.68173136	      5.21623033	     -8.81882354
      6.84000000	     -9.53263208	     -7.27613437	      8.22304883	     -1.01323081	     -0.02840693	     -0.25685890	     33.17519263	      4.98350375	     -3.15524885	    -19.69833292	     -8.31716009	     -0.61597105	      9.55462083	     -3.12243179	     -9.21065169	      8.70141777	    -29.45463250	    -12.08907903	     13.54900976	     31.49271790	      9.77597171	      5.51283904	     -8.82432370
      6.84500000	     -9.53614608	     -7.52216499	      8.08390944	     -1.00652200	     -0.02798644	     -0.25596175	     32.96884807	      5.50865145	     -2.70892595	    -20.03732008	     -8.15127947	     -1.13130717	      9.34451619	     -2.64868031	     -9.64763324	      8.09270915	    -30.69190117	    -13.70861724	     14.25465863	     31.49519472	      9.95857963	      5.82657105	     -8.77426611
      6.85000000	     -9.52676485	     -7.72539634	      7.96469840	     -0.99988151	     -0.02749519	     -0.25502256	     32.69261373	      6.00284056	     -2.22017515	    -20.28511754	     -7.99516988	     -1.78691241	      9.00815459	     -2.17033788	    -10.03108833	      7.60207104	    -31.91172473	    -15.49019978	     14.68038291	     31.60537101	     10.10941555	      6.07620332	     -8.74659573
      6.85500000	     -9.47592533	     -7.89435084	      7.91440397	     -0.99338767	     -0.02698200	     -0.25425100	     32.34778572	      6.39836113	     -1.92712449	    -20.49018070	     -7.66304276	     -2.18631596	      8.92364498	     -1.67001951	    -10.36605319	      7.20739155	    -33.20353039	    -17.20177570	     14.92156244	     31.50173013	     10.19434012	      6.29671491	     -8.78857180
      6.86000000	     -9.49427994	     -8.03877585	      7.79073760	     -0.98689795	     -0.02645762	     -0.25325477	     32.03331778	      6.82213056	     -1.51133713	    -20.62076950	     -7.44261293	     -2.75677679	      8.62951582	     -1.11646244	    -10.66318923	      6.87955470	    -34.43690383	    -19.01030476	     15.10053603	     31.56304860	     10.34193765	      6.46974798	     -8.73345092
      6.86500000	     -9.44626608	     -8.21450438	      7.74666185	     -0.98057722	     -0.02590189	     -0.25248443	     31.63122111	      7.19552070	     -1.34389060	    -20.69040259	     -7.09506357	     -2.99602707	      8.66700100	     -0.53956602	    -10.98015876	      6.61730653	    -35.78630532	    -20.61459017	     15.05670618	     31.25996103	     10.40395706	      6.69064608	     -8.78013536
      6.87000000	     -9.45283507	     -8.35831371	      7.67842545	     -0.97436200	     -0.02533788	     -0.25164726	     31.25880984	      7.54516029	     -1.13821373	    -20.70229131	     -6.83637914	     -3.32870489	      8.64991683	      0.11822048	    -11.23352393	      6.42907581	    -37.13921178	    -22.20981914	     14.83072618	     30.91299083	     10.50281373	      6.87461023	     -8.77393280
      6.87500000	     -9.44610397	     -8.52427330	      7.63159404	     -0.96819886	     -0.02479444	     -0.25079872	     30.84387848	      7.90039428	     -0.99240627	    -20.64948281	     -6.51821108	     -3.59152366	      8.71271601	      0.81103349	    -11.51353300	      6.24727700	    -38.53393323	    -23.64288930	     14.48186095	     30.51445100	     10.58538633	      7.06380877	     -8.78849895
